# xmcd CD database file
#
# Track frame offsets:
#	150
#	13940
#	34082
#	57745
#	74445
#	90000
#	106695
#	117452
#	140020
#	156590
#	174285
#	194497
#	208792
#	223882
#	242325
#	259552
#
# Disc length: 3735 seconds
#
# Revision: 0
# Processed by: cddbd v1.5.1PL0 Copyright (c) Steve Scherf et al.
# Submitted via: CDex 1.51
#
DISCID=ea0e9510
DTITLE=Traditional Jazz Band - 35 Anos
DYEAR=1998
DGENRE=Jazz
TTITLE0=Air Mail Special
TTITLE1=Motten Swing
TTITLE2=Melancholic Rhapsody
TTITLE3=Jumping At Woodside
TTITLE4=I'm Alone Because I Love You
TTITLE5=Exactly Like You
TTITLE6=I Ain't Got Nobody
TTITLE7=Oh Baby
TTITLE8=The Birth Of The Blues
TTITLE9=Running Wild
TTITLE10=Shining Stockings
TTITLE11=The Preacher
TTITLE12=When You're Smiling
TTITLE13=Swing That Music
TTITLE14=Georgia On My Mind
TTITLE15=The Bye Bye Blues
EXTD=YEAR: 1998
EXTT0=
EXTT1=
EXTT2=
EXTT3=
EXTT4=
EXTT5=
EXTT6=
EXTT7=
EXTT8=
EXTT9=
EXTT10=
EXTT11=
EXTT12=
EXTT13=
EXTT14=
EXTT15=
PLAYORDER=
